<?xml version="1.0" encoding="UTF-8" standalone="no"?>
<svg width="36px" height="36px" viewBox="0 0 36 36" version="1.1" xmlns="http://www.w3.org/2000/svg" xmlns:xlink="http://www.w3.org/1999/xlink" xmlns:sketch="http://www.bohemiancoding.com/sketch/ns">
    <title>Imported Layers</title>
    <description>Created with Sketch (http://www.bohemiancoding.com/sketch)</description>
    <defs></defs>
    <g id="Page-3" stroke="none" stroke-width="1" fill="none" fill-rule="evenodd" sketch:type="MSPage">
        <path d="M18,0 C8.058,0 0,8.059 0,18 C0,27.941 8.058,36 18,36 C27.941,36 36,27.941 36,18 C36,8.059 27.941,0 18,0 M29.821,29.816 C27.057,27.356 23.829,26.287 23.111,26.074 C21.075,24.366 21.9,22.464 23.388,19.774 C23.612,19.367 23.832,18.969 24.024,18.585 C25.128,16.379 24.935,14.984 24.769,14.422 C25.198,12.836 25.579,8.432 23.357,6.033 C22.034,4.604 20.095,4.191 17.585,4.798 C14.939,4.814 13.014,5.633 11.861,7.232 C9.874,9.989 10.92,14.115 11.206,15.085 C10.647,17.072 11.786,18.447 12.026,18.708 C12.297,19.084 15.327,23.429 12.79,26.117 L11.923,26.501 C9.301,27.66 7.488,28.47 6.739,29.039 C6.739,29.039 5.99,29.609 4.536,28.105 C3.082,26.601 1.286,22.514 1.286,18 C1.286,8.769 8.769,1.286 18,1.286 C27.231,1.286 34.714,8.769 34.714,18 C34.714,22.614 32.845,26.792 29.821,29.816" id="Imported-Layers" fill="#F0F0F0" sketch:type="MSShapeGroup"></path>
    </g>
</svg>