<?xml version="1.0" encoding="UTF-8" standalone="no"?>
<svg width="200px" height="32px" viewBox="0 0 200 32" version="1.1" xmlns="http://www.w3.org/2000/svg" xmlns:xlink="http://www.w3.org/1999/xlink" xmlns:sketch="http://www.bohemiancoding.com/sketch/ns">
    <title>Imported Layers</title>
    <description>Created with Sketch (http://www.bohemiancoding.com/sketch)</description>
    <defs>
        <path id="path-1" d="M0,32 L200,32 L200,0 L0,0 L0,32 Z"></path>
        <path id="path-3" d="M0,32 L200,32 L200,0 L0,0 L0,32 Z"></path>
    </defs>
    <g id="Page-1" stroke="none" stroke-width="1" fill="none" fill-rule="evenodd" sketch:type="MSPage">
        <g id="Imported-Layers" sketch:type="MSLayerGroup">
            <g id="Group-3">
                <mask id="mask-2" sketch:name="Clip 2" fill="white">
                    <use xlink:href="#path-1"></use>
                </mask>
                <g id="Clip-2"></g>
                <path d="M124.1819,-0.0001 L110.6899,31.9999 L112.4549,31.9999 L117.0729,20.9409 L133.0049,20.9409 L137.6749,31.9999 L139.4399,31.9999 L125.9469,-0.0001 L124.1819,-0.0001 Z M117.5919,19.6239 L125.0639,1.8819 L132.4849,19.6239 L117.5919,19.6239 Z M90.5029,-0.0001 L78.7749,-0.0001 L78.7749,31.9999 L90.5029,31.9999 C100.8289,31.9999 107.6269,25.3639 107.6269,15.9999 C107.6269,6.6349 100.8289,-0.0001 90.5029,-0.0001 L90.5029,-0.0001 Z M90.5029,30.7289 L80.3309,30.7289 L80.3309,1.2699 L90.5029,1.2699 C99.8949,1.2699 105.9669,7.4819 105.9669,15.9999 C105.9669,24.5169 99.8949,30.7289 90.5029,30.7289 L90.5029,30.7289 Z M198.0799,-0.0001 L187.1299,15.9999 L176.1819,-0.0001 L174.2609,-0.0001 L186.3519,17.5049 L186.3519,31.9999 L187.9099,31.9999 L187.9099,17.5049 L199.9999,-0.0001 L198.0799,-0.0001 Z M159.7819,-0.0001 L158.2259,-0.0001 L158.2259,31.9999 L176.0759,31.9999 L176.0759,30.7289 L159.7819,30.7289 L159.7819,-0.0001 Z M146.0819,31.9999 L147.6379,31.9999 L147.6379,-0.0001 L146.0819,-0.0001 L146.0819,31.9999 Z" id="Fill-1" fill="#FEFEFE" sketch:type="MSShapeGroup" mask="url(#mask-2)"></path>
            </g>
            <mask id="mask-4" sketch:name="Clip 5" fill="white">
                <use xlink:href="#path-3"></use>
            </mask>
            <g id="Clip-5"></g>
            <path d="M65.647,0.151 L64.138,0.151 L64.138,3.066 L65.647,3.066 L65.647,0.151 Z M70.808,6.209 L70.808,4.839 L58.825,4.839 L58.825,0.152 L57.315,0.171 C57.314,3.554 56.926,7.433 56.193,11.4 L57.315,11.571 L57.315,31.993 L70.808,31.993 L70.808,30.623 L65.647,30.623 L65.647,23.1 L70.808,23.1 L70.808,21.73 L65.647,21.73 L65.647,14.807 L70.808,14.807 L70.808,13.437 L65.647,13.437 L65.647,6.209 L70.808,6.209 Z M64.137,30.623 L58.825,30.623 L58.825,23.1 L64.137,23.1 L64.137,30.623 Z M64.137,21.73 L58.825,21.73 L58.825,14.807 L64.137,14.807 L64.137,21.73 Z M64.137,13.437 L58.825,13.437 L58.825,6.209 L64.137,6.209 L64.137,13.437 Z M43.661,13.29 C42.075,11.393 40.478,9.847 39.25,8.701 L38.117,9.609 C39.378,10.786 40.986,12.347 42.536,14.23 L43.661,13.29 Z M51.782,15.994 L51.804,15.903 C53.178,10.326 53.919,4.881 53.949,0.151 L45.296,0.151 L45.296,1.521 L52.41,1.521 L52.397,1.835 C52.258,5.291 51.764,9.044 50.93,12.988 L50.749,13.846 L50.306,13.07 C49.003,10.783 47.4,8.632 45.541,6.676 L44.535,7.739 C46.869,10.241 48.755,13.037 50.154,16.064 L50.196,16.154 L50.171,16.249 C48.813,21.575 46.976,26.573 44.857,30.709 L46.258,31.224 C47.994,27.82 49.575,23.756 50.842,19.448 L51.145,18.415 L51.484,19.439 C52.729,23.204 53.364,27.427 53.37,31.992 L54.879,31.975 C54.87,25.956 53.869,20.757 51.819,16.081 L51.782,15.994 Z M25.354,16.227 L25.354,0.271 L23.844,0.271 L23.844,15.563 L23.359,15.34 C20.929,14.222 18.567,12.977 16.34,11.639 L16.139,11.518 L16.202,11.307 C16.879,9.038 17.27,6.862 17.363,4.839 L7.784,4.839 L7.886,4.463 C8.27,3.055 8.546,1.641 8.708,0.257 L7.186,0.272 C6.523,5.657 4.106,11.249 0,16.896 L1.261,17.651 C1.947,16.706 2.603,15.736 3.223,14.75 L3.399,14.47 L3.696,14.647 C4.38,15.055 5.225,15.561 6.138,16.107 L6.642,16.41 C8.187,17.335 9.785,18.291 10.978,18.985 L11.232,19.132 L11.096,19.376 C9.21,22.764 6.758,26.346 3.807,30.025 L5.079,30.766 C10.087,24.51 13.608,18.626 15.555,13.264 L15.691,12.891 L16.054,13.104 C18.456,14.518 21.014,15.828 23.657,17 L23.844,17.083 L23.844,31.993 L25.354,31.993 L25.354,17.73 L25.824,17.921 C28.979,19.207 32.166,20.282 35.299,21.117 L35.844,19.834 C32.354,18.909 28.897,17.725 25.546,16.309 L25.354,16.227 Z M15.694,6.546 C15.269,9.941 14.044,13.651 12.054,17.573 L11.894,17.889 L11.571,17.7 C10.254,16.932 8.44,15.845 6.983,14.972 L6.809,14.868 C5.898,14.322 5.054,13.816 4.376,13.414 L4.123,13.264 L4.262,13.022 C5.521,10.816 6.536,8.596 7.281,6.422 L7.354,6.209 L15.736,6.209 L15.694,6.546 Z M43.501,19.452 C41.851,23.277 39.926,26.905 37.925,29.965 L39.34,30.489 C41.422,27.279 43.418,23.469 45.116,19.46 L43.501,19.452 Z M43.102,6.29 L44.098,5.237 C42.28,3.522 40.494,2.155 39.125,1.146 L38.117,2.168 C39.516,3.199 41.312,4.578 43.102,6.29 L43.102,6.29 Z" id="Fill-4" fill="#FEFEFE" sketch:type="MSShapeGroup" mask="url(#mask-4)"></path>
        </g>
    </g>
</svg>