<?xml version="1.0" encoding="UTF-8" standalone="no"?>
<svg width="14px" height="18px" viewBox="0 0 14 18" version="1.1" xmlns="http://www.w3.org/2000/svg" xmlns:xlink="http://www.w3.org/1999/xlink" xmlns:sketch="http://www.bohemiancoding.com/sketch/ns">
    <title>分享icon</title>
    <description>Created with Sketch (http://www.bohemiancoding.com/sketch)</description>
    <defs></defs>
    <g id="Page-2" stroke="none" stroke-width="1" fill="none" fill-rule="evenodd" sketch:type="MSPage">
        <g id="分享icon" sketch:type="MSLayerGroup" fill="#FFFFFF">
            <path d="M4.1308,3.3832 C4.2188,3.3832 4.2978,3.3472 4.3558,3.2902 L6.3548,1.2902 L6.3548,11.3272 C6.3548,11.5032 6.4978,11.6452 6.6728,11.6452 C6.8478,11.6452 6.9908,11.5032 6.9908,11.3272 L6.9908,1.2902 L8.9898,3.2902 C9.0478,3.3472 9.1268,3.3832 9.2148,3.3832 C9.3898,3.3832 9.5328,3.2412 9.5328,3.0652 C9.5328,2.9782 9.4968,2.8982 9.4398,2.8412 L6.8978,0.2992 C6.8398,0.2412 6.7608,0.2052 6.6728,0.2052 C6.5848,0.2052 6.5058,0.2412 6.4478,0.2992 L3.9058,2.8412 C3.8488,2.8982 3.8128,2.9782 3.8128,3.0652 C3.8128,3.2412 3.9558,3.3832 4.1308,3.3832 M12.7098,5.2902 L8.5798,5.2902 C8.4038,5.2902 8.2618,5.4322 8.2618,5.6072 C8.2618,5.7832 8.4038,5.9252 8.5798,5.9252 L12.7098,5.9252 L12.7098,17.3642 L0.6358,17.3642 L0.6358,5.9252 L4.7668,5.9252 C4.9418,5.9252 5.0838,5.7832 5.0838,5.6072 C5.0838,5.4322 4.9418,5.2902 4.7668,5.2902 L0.6358,5.2902 C0.2848,5.2902 -0.0002,5.5742 -0.0002,5.9252 L-0.0002,17.3642 C-0.0002,17.7152 0.2848,18.0002 0.6358,18.0002 L12.7098,18.0002 C13.0608,18.0002 13.3458,17.7152 13.3458,17.3642 L13.3458,5.9252 C13.3458,5.5742 13.0608,5.2902 12.7098,5.2902" id="Fill-1" sketch:type="MSShapeGroup"></path>
        </g>
    </g>
</svg>