<?xml version="1.0" encoding="UTF-8" standalone="no"?>
<svg width="17px" height="18px" viewBox="0 0 17 18" version="1.1" xmlns="http://www.w3.org/2000/svg" xmlns:xlink="http://www.w3.org/1999/xlink" xmlns:sketch="http://www.bohemiancoding.com/sketch/ns">
    <title>赞icon</title>
    <description>Created with Sketch (http://www.bohemiancoding.com/sketch)</description>
    <defs>
        <path id="path-1" d="M0,18 L16.482,18 L16.482,0.235 L0,0.235"></path>
    </defs>
    <g id="Page-2" stroke="none" stroke-width="1" fill="none" fill-rule="evenodd" sketch:type="MSPage">
        <g id="赞icon" sketch:type="MSLayerGroup">
            <mask id="mask-2" sketch:name="Clip 2" fill="white">
                <use xlink:href="#path-1"></use>
            </mask>
            <g id="Clip-2"></g>
            <path d="M16.4545,13.1823 C16.3635,12.7703 16.1755,12.4093 15.9745,12.2223 C16.4655,11.6673 16.4825,10.9763 16.4825,10.5603 C16.4825,9.7863 16.1775,9.1713 15.5375,8.8063 C15.7705,7.9323 15.5065,7.2773 15.0275,7.0333 C14.2505,6.6373 13.3225,6.7573 12.2735,6.9963 C11.4275,7.1883 10.4135,7.3883 9.5965,7.2513 C9.0165,7.1543 8.8885,7.0073 8.8605,6.9483 C8.7685,6.7553 9.0445,6.2683 9.3115,5.7973 C9.7435,5.0373 10.2805,3.9513 10.2805,2.8153 C10.2805,1.2003 9.2915,0.2343 8.3345,0.2343 C7.7355,0.2343 7.1315,0.6443 7.1315,1.5583 C7.1315,3.1033 6.3755,3.9973 3.8715,6.5023 C2.8215,7.5523 2.3975,8.3393 2.1165,8.8603 C1.7265,9.5863 1.2715,9.7603 0.3355,9.7613 C0.3285,9.7613 0.3235,9.7583 0.3175,9.7583 C0.1415,9.7583 0.0005,9.9003 0.0005,10.0753 C0.0005,10.2503 0.1415,10.3923 0.3175,10.3923 C0.3195,10.3923 0.3215,10.3913 0.3235,10.3913 L0.3235,10.3963 C1.5855,10.3963 2.2025,10.0403 2.6755,9.1613 C2.9535,8.6433 3.3355,7.9343 4.3205,6.9503 C6.8975,4.3723 7.7665,3.3653 7.7665,1.5583 C7.7665,1.1203 7.9735,0.8693 8.3345,0.8693 C8.8795,0.8693 9.6465,1.4723 9.6465,2.8153 C9.6465,3.7843 9.1545,4.7883 8.7605,5.4843 C8.3655,6.1803 8.0535,6.7293 8.2875,7.2213 C8.4985,7.6643 9.0765,7.8073 9.4925,7.8773 C10.4315,8.0333 11.5505,7.8103 12.4145,7.6143 C13.3615,7.3993 14.1795,7.2133 14.6635,7.5523 C15.3675,8.0463 14.9035,9.1243 14.9035,9.1243 C14.9035,9.1243 15.8485,9.2843 15.8485,10.5603 C15.8485,11.0363 15.8915,11.4963 15.3525,11.9273 L14.9745,12.2523 L15.4065,12.5163 C15.4255,12.5263 15.7415,12.7823 15.8465,13.2763 C15.9455,13.7463 15.5125,14.3123 14.9865,14.9703 L14.8595,15.1283 L14.9505,15.3103 C14.9525,15.3143 15.4315,15.7643 15.1665,16.1933 C14.8865,16.6463 13.7975,17.3653 10.3825,17.3653 C7.0525,17.3653 5.7705,17.1583 4.5495,16.7073 C3.4965,16.3193 2.4995,16.1083 0.3455,16.1063 C0.3365,16.1053 0.3275,16.1003 0.3175,16.1003 C0.1415,16.1003 0.0005,16.2423 0.0005,16.4173 C0.0005,16.5873 0.1355,16.7243 0.3035,16.7313 L0.3035,16.7393 C2.3745,16.7393 3.2805,16.9153 4.3305,17.3023 C5.5445,17.7503 6.9395,18.0003 10.3825,18.0003 C13.2215,18.0003 15.1645,17.5203 15.7355,16.4873 C16.0765,15.8703 15.6765,15.4693 15.6005,15.2053 C16.1815,14.4323 16.5935,13.8183 16.4545,13.1823" id="Fill-1" fill="#FFFFFF" sketch:type="MSShapeGroup" mask="url(#mask-2)"></path>
        </g>
    </g>
</svg>